<?xml version="1.0" encoding="UTF-8"?>
<svg id="Layer_2" data-name="Layer 2" xmlns="http://www.w3.org/2000/svg" viewBox="0 0 259.12 80.62">
  <defs>
    <style>
      .cls-1 {
        fill: #682d25;
      }

      .cls-2 {
        opacity: .39;
      }

      .cls-3 {
        stroke-width: 2px;
      }

      .cls-3, .cls-4 {
        fill: none;
        stroke: #6a2d2c;
        stroke-linecap: round;
        stroke-miterlimit: 10;
      }

      .cls-5 {
        fill: #faaf3a;
      }
    </style>
  </defs>
  <g id="flat_colors" data-name="flat colors">
    <g>
      <path class="cls-5" d="m259.12,76.62c0,2.21-1.79,4-4,4H6.73v-.74c0-6.08,1.09-11.9,3.1-17.28L0,25.92l34.77,9.32c4.02-1.94,8.35-3.36,12.89-4.16l14.41-24.95,16.35,28.32c-.19.28,0,0,0,0C92.34,13.64,115.66,0,142.08,0c40.42,0,73.59,31.94,76.94,72.62h36.1c2.21,0,4,1.8,4,4Z"/>
      <path class="cls-5" d="m79.33,35.02c-.48-.25-.97-.5-1.46-.73.18-.28.36-.56.55-.84l.91,1.57Z"/>
      <path class="cls-1" d="m49.93,72.55l2.89-3.38c.74-.86.12-2.19-1.01-2.19h-5.77c-1.13,0-1.75,1.33-1.01,2.19l2.89,3.38c.53.62,1.49.62,2.02,0Z"/>
      <path class="cls-5" d="m79.33,35.02c-.48-.25-.97-.5-1.46-.73.18-.28.36-.56.55-.84l.91,1.57Z"/>
      <g>
        <path class="cls-3" d="m27.48,57.47c.28,3.53,3.22,6.3,6.82,6.3s6.54-2.78,6.82-6.3"/>
        <path class="cls-3" d="m56.72,57.47c.28,3.53,3.22,6.3,6.82,6.3s6.54-2.78,6.82-6.3"/>
      </g>
      <g>
        <g class="cls-2">
          <g>
            <line class="cls-4" x1="71.38" y1="68.86" x2="81.79" y2="64.23"/>
            <line class="cls-4" x1="73.39" y1="71.29" x2="84.2" y2="71.29"/>
            <line class="cls-4" x1="71.52" y1="73.69" x2="82.09" y2="77.31"/>
          </g>
        </g>
        <g class="cls-2">
          <g>
            <line class="cls-4" x1="26.63" y1="72.61" x2="16.08" y2="77.31"/>
            <line class="cls-4" x1="24.6" y1="70.16" x2="13.63" y2="70.16"/>
            <line class="cls-4" x1="26.49" y1="67.72" x2="15.77" y2="64.05"/>
          </g>
        </g>
      </g>
    </g>
  </g>
</svg>